<svg width="28" height="28" viewBox="0 0 28 28" fill="none" xmlns="http://www.w3.org/2000/svg">
<g id="Lock">
<path id="Vector" d="M22.3333 10.3333H19V7.88889C19 6.59227 18.4732 5.34877 17.5355 4.43192C16.5979 3.51508 15.3261 3 14 3C12.6739 3 11.4021 3.51508 10.4645 4.43192C9.52678 5.34877 9 6.59227 9 7.88889V10.3333H5.66667C5.22464 10.3333 4.80072 10.505 4.48816 10.8106C4.17559 11.1163 4 11.5308 4 11.963V23.3704C4 23.8026 4.17559 24.2171 4.48816 24.5227C4.80072 24.8283 5.22464 25 5.66667 25H22.3333C22.7754 25 23.1993 24.8283 23.5118 24.5227C23.8244 24.2171 24 23.8026 24 23.3704V11.963C24 11.5308 23.8244 11.1163 23.5118 10.8106C23.1993 10.505 22.7754 10.3333 22.3333 10.3333ZM14 18.8889C13.7528 18.8889 13.5111 18.8172 13.3055 18.6829C13.1 18.5486 12.9398 18.3577 12.8451 18.1344C12.7505 17.9111 12.7258 17.6653 12.774 17.4282C12.8222 17.1911 12.9413 16.9734 13.1161 16.8024C13.2909 16.6315 13.5137 16.5151 13.7561 16.4679C13.9986 16.4208 14.2499 16.445 14.4784 16.5375C14.7068 16.63 14.902 16.7866 15.0393 16.9876C15.1767 17.1886 15.25 17.4249 15.25 17.6667C15.25 17.9908 15.1183 18.3017 14.8839 18.5309C14.6495 18.7601 14.3315 18.8889 14 18.8889ZM17.3333 10.3333H10.6667V7.88889C10.6667 7.02448 11.0179 6.19547 11.643 5.58424C12.2681 4.97301 13.1159 4.62963 14 4.62963C14.8841 4.62963 15.7319 4.97301 16.357 5.58424C16.9821 6.19547 17.3333 7.02448 17.3333 7.88889V10.3333Z" fill="white"/>
</g>
</svg>
