<svg width="28" height="28" viewBox="0 0 28 28" fill="none" xmlns="http://www.w3.org/2000/svg">
<g id="user">
<path id="image 79 (Traced)" fill-rule="evenodd" clip-rule="evenodd" d="M6.55832 6.02618C5.61278 6.17894 4.79 6.81207 4.35493 7.72166C4.2249 7.99355 4.05783 8.48417 4.08803 8.50539C4.69888 8.93492 13.9602 15.0264 14.0024 15.0264C14.0446 15.0264 23.306 8.93492 23.9169 8.50539C23.947 8.48417 23.7801 7.99364 23.6501 7.72166C23.2778 6.94255 22.6399 6.38017 21.8158 6.10438L21.5238 6.00673L14.1392 6.00059C10.0777 5.9972 6.66624 6.00873 6.55832 6.02618ZM4 14.7967C4 18.5302 4.00789 19.1206 4.06166 19.4052C4.18587 20.0634 4.42198 20.543 4.85958 21.026C5.33689 21.5529 5.91172 21.8627 6.5809 21.9537C7.03527 22.0154 20.9696 22.0154 21.424 21.9537C22.4787 21.8103 23.395 21.045 23.7913 19.9766C24.0087 19.3901 24.0075 19.4218 23.996 14.7849L23.9853 10.5159L19.2967 13.6156C16.7179 15.3204 14.5317 16.7523 14.4383 16.7975C14.2087 16.9087 13.7963 16.9087 13.5666 16.7975C13.4732 16.7523 11.3159 15.3396 8.77257 13.658C6.22922 11.9765 4.11495 10.5814 4.07416 10.5577C4.00156 10.5156 4 10.6045 4 14.7967Z" fill="white"/>
</g>
</svg>
