<svg width="20" height="20" viewBox="0 0 20 20" fill="none" xmlns="http://www.w3.org/2000/svg">
<g id="X">
<path id="Vector" d="M16.2883 14.962C16.4644 15.1381 16.5634 15.377 16.5634 15.626C16.5634 15.8751 16.4644 16.114 16.2883 16.2901C16.1122 16.4662 15.8733 16.5652 15.6242 16.5652C15.3752 16.5652 15.1363 16.4662 14.9602 16.2901L10 11.3284L5.03831 16.2885C4.86219 16.4647 4.62332 16.5636 4.37425 16.5636C4.12517 16.5636 3.8863 16.4647 3.71018 16.2885C3.53406 16.1124 3.43512 15.8736 3.43512 15.6245C3.43512 15.3754 3.53406 15.1365 3.71018 14.9604L8.6719 10.0003L3.71175 5.03854C3.53563 4.86242 3.43668 4.62355 3.43668 4.37448C3.43668 4.12541 3.53563 3.88654 3.71175 3.71042C3.88787 3.53429 4.12674 3.43535 4.37581 3.43535C4.62488 3.43535 4.86375 3.53429 5.03987 3.71042L10 8.67213L14.9617 3.70963C15.1379 3.53351 15.3767 3.43457 15.6258 3.43457C15.8749 3.43457 16.1137 3.53351 16.2899 3.70963C16.466 3.88575 16.5649 4.12462 16.5649 4.3737C16.5649 4.62277 16.466 4.86164 16.2899 5.03776L11.3282 10.0003L16.2883 14.962Z" fill="#393C4C"/>
</g>
</svg>
